<?xml version="1.0" encoding="UTF-8"?>
<svg id="Layer_1" xmlns="http://www.w3.org/2000/svg" version="1.1" xmlns:xlink="http://www.w3.org/1999/xlink" viewBox="0 0 100 100">
  <!-- Generator: Adobe Illustrator 29.3.1, SVG Export Plug-In . SVG Version: 2.1.0 Build 151)  -->
  <defs>
    <style>
      .st0 {
        fill: #fff;
      }
    </style>
  </defs>
  <circle class="st0" cx="50" cy="50" r="50"/>
  <g>
    <path d="M81.2,44.3c.1.1.5.2.7.1v.4c-.4,0-.9.2-1.1.4-.6.9,0,6.1-.2,7.8-.9,9.9-6.5,15.4-12.2,22.6-1.1,1.4-2.5,4.1-3.5,5.2-1.8,2-5.4,2.8-6.6,5l-2.2-.9.4,1.8c-5.5.8-9.5,3.7-13.4,7.6.1-1-.5-1-1.3-.9l.8-1.1-2.2-2.2,1.3-.7c-2.2.2-4.6-.6-6-2.2l-.4,1.3c-2.6-2.1-4.8-3.5-6.3-6.7l-1.1,1.8c-1.6-3.6-2.1-7.5-3.3-11.2-2.2-7.1-5.7-16.4-7.3-23.5-.5-2.1-.8-4.6-1-6.8l1.6,5.8c.4.8,3.5,3.5,3.6,3.7.3.8-.1,1.9.8,2.6l.4-.9,1.1.7c1-.4,1.1-2,1.5-2.4.5-.5,2-.3,2.3-1.9h1.1s.2.9.2.9c3.9-2.2,8.7-4.4,6.9-9.8.9.1,1.8-.4,2.7-.2s3,1.9,3.3,1.9c1,0,5-2.2,6.9-2.3s3.2.7,4.9-.2c-.1,1.1-.7,2.1-.4,3.3s.7.3.9.6.3,1.3.5,1.4,3.2.4,4.9,1.6,2.3,3,3.2,3.7,3.1,1.2,4.1,2c.9-.4,1.5-2.5,1.7-2.6.3-.3,1.2.1,1.6-.1s.9-3.2,1.1-3.4.9,0,1.3-.3.7-2.7,1.3-3.1,1.4,0,1.7-.3,0-.8.2-1.1c1.1-1.3,2.9-2.2,2.5-4.2l1.3,1.8v-2.7s1,6.8,1,6.8c0,.5.2.7.5,1.1ZM49.7,53.9c-.8-1.4-7.8-.2-9.6-.4l-2.3,4.1.9.5-.9,3.8c2.4.6.7-2.7,2.5-4,2.6,1.7,1.6.4,2.3,0,1.5-.9,4.2-.2,6-.4l-1.3-1.3c1.5.2,3-.4,2.6-2.2ZM35.1,61.9l-.4-2-1.8-.2-.5,5.6c1.8.2,1.8,2,2.5,3.4l1.1-.9c.2.8-1.2,2.8,0,3.1-.1-3.3,2.7-5,3.6-7.6l-2,.9-.7-.9.9-.9-2.7-.4Z"/>
    <path d="M71.2,20.4c.5.3,5.8-.3,6.8-.6,1.6-.4,1.6-1.2,3-1.2.3,1.2-1,1.1-1.8,1.3,1.2,2,.2,3.6.4,5.8-.9-.2-.2-1.7-.7-2.7s-.8-.9-1.6-.7-5.4,2.7-5.6,3c-1,1.6-.2,5-2.5,6.9s-6.6,2.3-8.7,2.5-9.4.3-10.5-.2-2.6-2.8-3.1-3.6c-1.2-2.2-1.2-5.9-4.3-5.5s-1.3,2.3-1.8,3.6-2.6,5.7-3,6.1c-2.4,2-12.5,2-15.7,1.4-6-1.1-4.7-3.9-7.2-8.4-1.1-.5-.9,2.1-.7,2.4,0,1.8-3.4-4.2-2.5-4.7l2,2.2-.4-3.3c.6-2.1,14.5-2.7,16.9-3-.4-1.3-6.8-2.8-7.1-2.6-.6.4-.8,2.6-3.2,2.2l1.8-2.5c2.3-.7,4.4-.5,6.7-.2l-.5-.9c1.5-1,11.9,1.3,11.2,4.9l-1.8.4c1.6-.3,3.2.5,4.7.5,3,0,6.6-2,9.6-2.3-.5-1.2-3.4.5-4,0l.4-2.2.4.9h.9c0-1.4,1.9-2.1,3.1-2.5,3.2-1,8.6-1.5,11.9-1.5s5.2,2.1,6.3,3.2.5.7.2,1.3ZM57.6,19.9c4.4-.2,8.8.2,13.2,0,0-.4-2.1-1.1-2.3-1.1-.6,0-.8.5-1.1.4-1.1-.2-4.4-1.5-4.8-1.5-1.7,0-5.4,2.9-7.9,2.1.4,1.3,2.5,0,2.9,0ZM65.2,28.4c-2.1.4-5.2-.3-7.4,0l7.1-.9-.5-1.3c-3,.1-6.6-1.1-9.5-.3-.8.2-1.2,1.5-2.4,1.1l.4-1.8-2.7.4.9-.9-2.7-.5-.2-.9c-2.6,2.1,0,3.5.9,5.8s.5,2.6,1.1,3.8c2.2,2.2,15.5.7,18.1-1.1s3.4-12-1.6-10.5c.8,1.8,2.2,2.2,2.2,4.2h-1.8c0,.5.2,1.4,0,1.7s-1.8.9-1.9,1ZM25.7,23.1c-1.9-.1-7.3.3-8.4,2s.2,7.9,1.8,9.3c2.6,2.4,16.2,2.3,18.6-.3s4.1-10.5-.3-10.1l1.3,1.1-.8.3.3.8c-2.6-1-5.8,0-8.3-.4s-.6-1.6-2-1.3l.4,1.8c-1.7-.4-3.3-.2-4.9.5l-.5-1.1c1.2-.2.4-1.1,1.1-1.6s1.7-.1,1.6-.9Z"/>
    <path d="M84.7,22.3c.5-.5,3.2-1.6,3.3-.4s-.6,3.4-1.7,4c-2.5,1.2-2.9-2.3-1.7-3.6Z"/>
    <path d="M27.4,48.4c-.4.3-1.5.4-1.2-.6s3.2-3.6,4-4.2c0,.8-2.5,4.7-2.8,4.8Z"/>
    <path class="st0" d="M57.6,19.9c-.4,0-2.5,1.3-2.9,0,2.4.8,6.2-2.1,7.9-2.1s3.7,1.3,4.8,1.5.5-.5,1.1-.4,2.3.7,2.3,1.1c-4.4.2-8.8-.2-13.2,0Z"/>
  </g>
</svg>